<svg xmlns="http://www.w3.org/2000/svg" enable-background="new 0 0 64 64" viewBox="0 0 64 64" id="saving-money">
  <path fill="#2d9739" d="M60.214 34.993c1.918-1.631 3.068-3.439 2.71-5.178-.415-2.012-2.676-4.062-5.063-3.792-2.549.286-4.03 2.601-3.866 6.041.048.996.713 2.104 1.824 3.042.112.094.227.186.344.273-1.017.584-2.181 1.152-3.479 1.671l-3 1 .633 1.897 3.055-1.021c1.685-.674 3.342-1.505 4.793-2.434 1.247.486 2.598.674 3.902.515l-.244-1.985C61.294 35.089 60.751 35.078 60.214 34.993zM57.993 34.2c-.312-.181-.608-.389-.885-.623-.748-.631-1.1-1.263-1.116-1.609-.042-.869-.014-3.723 2.091-3.958C58.148 28.003 58.214 28 58.279 28c1.2 0 2.472 1.185 2.686 2.219C61.161 31.168 60.095 32.671 57.993 34.2zM14 24.492v-8.325c0-2.215 2.309-2.81 4-1.379l6.124 4.855L14 24.492z"></path>
  <path fill="#44bc59" d="M8.309,32H4c-1.105,0-2,1.343-2,3v6c0,1.657,0.895,3,2,3h3.928L8.309,32z"></path>
  <path fill="#22712b" d="M14 52.508V60c0 1.105.895 2 2 2h5c1.105 0 2-.895 2-2v-2.92L14 52.508zM46 52.508V60c0 1.105-.895 2-2 2h-5c-1.105 0-2-.895-2-2v-2.92L46 52.508z"></path>
  <path fill="#2d9739" d="M43.387,22.642C49.208,26.18,53,31.965,53,38.5C53,49.27,42.703,58,30,58S7,49.27,7,38.5
		S17.297,19,30,19c0.698,0,1.389,0.026,2.072,0.078L43.387,22.642z"></path>
  <path fill="#44bc59" d="M43.387,22.642l-11.316-3.564C31.389,19.026,30.698,19,30,19c-9.226,0-17.179,4.608-20.844,11.255
		C9.057,30.992,9,31.74,9,32.5C9,43.27,19.297,52,32,52c9.226,0,17.179-4.608,20.844-11.255C52.943,40.008,53,39.26,53,38.5
		C53,31.965,49.208,26.18,43.387,22.642z"></path>
  <path fill="#b4e4bd" d="M18 38c-2.386 0-4.545-1.413-5.5-3.6l1.832-.801C14.97 35.058 16.409 36 18 36c2.206 0 4-1.794 4-4 0-1.27-.583-2.437-1.601-3.2l1.201-1.6C23.125 28.345 24 30.095 24 32 24 35.309 21.309 38 18 38zM30.098 53.014c-3.954 0-7.916-1.007-11.581-3.034l.967-1.75c7.188 3.972 15.622 3.671 22.563-.806l.411-.265 1.084 1.681-.411.265C39.099 51.706 34.604 53.014 30.098 53.014z"></path>
  <path fill="#44bc59" d="M40,8.234V2h-2v6.234l-3.485-2.091l-1.029,1.715l5,3C38.644,10.953,38.822,11,39,11
		c0.17,0,0.34-0.043,0.493-0.13c0.007-0.004,0.013-0.011,0.02-0.015l0.001,0.002l5-3l-1.029-1.715L40,8.234z"></path>
  <path fill="#ffc239" d="M33.528,24C32.578,22.939,32,21.537,32,20c0-3.314,2.686-6,6-6s6,2.686,6,6
		c0,2.791-1.905,5.137-4.486,5.807L33.528,24z"></path>
  <path fill="#ffd55d" d="M38,14c-1.526,0-2.915,0.575-3.974,1.513c0.229,4.491,3.412,8.194,7.65,9.204
		C43.083,23.619,44,21.923,44,20C44,16.686,41.314,14,38,14z"></path>
  <path fill="#b4e4bd" d="M41.408,29.433C40.114,26.74,37.01,25,33.5,25c-1.102,0-2.172,0.171-3.184,0.509l-0.633-1.896
			C30.898,23.206,32.183,23,33.5,23c4.273,0,8.086,2.185,9.711,5.566L41.408,29.433z"></path>
</svg>
